<?xml version="1.0" standalone="no"?>
<!DOCTYPE svg PUBLIC "-//W3C//DTD SVG 20010904//EN"
 "http://www.w3.org/TR/2001/REC-SVG-20010904/DTD/svg10.dtd">
<svg version="1.0" xmlns="http://www.w3.org/2000/svg"
 width="500.000000pt" height="500.000000pt" viewBox="0 0 500.000000 500.000000"
 preserveAspectRatio="xMidYMid meet">

<g transform="translate(0.000000,500.000000) scale(0.100000,-0.100000)"
fill="#000000" stroke="none">
<path d="M4696 4569 c-310 -114 -583 -195 -1131 -333 -203 -51 -382 -96 -397
-100 -34 -8 -36 -22 -5 -30 13 -3 41 -13 63 -22 21 -10 91 -39 154 -64 63 -26
115 -51 117 -56 2 -5 -42 -26 -98 -47 l-101 -37 -86 41 c-48 23 -105 48 -127
56 -22 8 -49 19 -60 23 -28 12 -146 40 -235 56 -89 16 -405 19 -482 4 -130
-25 -167 -34 -223 -52 -33 -10 -68 -23 -77 -28 -10 -6 -23 -10 -28 -10 -22 0
-217 -103 -300 -158 -46 -31 -136 -106 -199 -167 -197 -191 -286 -328 -401
-620 -5 -11 -11 -31 -15 -45 -3 -14 -11 -41 -16 -60 -84 -317 -72 -622 38
-947 l34 -103 -75 -97 c-42 -54 -89 -114 -104 -133 -15 -19 -85 -109 -156
-200 -229 -291 -299 -381 -467 -595 -90 -116 -187 -238 -216 -272 -64 -76 -69
-100 -10 -47 24 22 61 52 83 69 79 61 487 364 639 475 86 63 229 168 316 233
145 107 179 125 179 96 0 -5 17 -46 38 -92 21 -45 45 -98 52 -117 7 -19 30
-71 50 -115 20 -44 45 -102 55 -128 10 -26 22 -46 26 -45 4 2 61 56 127 120
l119 117 34 -21 c65 -40 239 -108 344 -136 250 -65 520 -65 770 0 576 150
1010 615 1133 1213 34 162 38 345 14 544 l-11 84 51 101 c55 111 186 302 198
289 5 -4 40 -62 79 -128 111 -189 142 -237 149 -231 7 7 15 57 57 331 14 94
37 226 51 295 14 69 34 172 44 230 31 175 87 403 174 713 31 109 56 202 56
207 0 18 -34 9 -224 -61z m-1970 -793 c197 -35 410 -123 549 -227 165 -123
322 -315 406 -493 97 -210 144 -467 120 -666 -44 -365 -202 -664 -466 -879
-169 -138 -296 -199 -542 -260 -74 -19 -242 -34 -299 -27 -33 3 -84 8 -114 11
-52 6 -71 9 -172 36 -328 86 -629 335 -788 649 -46 92 -76 174 -107 298 -24
96 -27 125 -27 287 0 154 3 193 22 270 54 214 124 366 238 515 47 60 196 208
259 256 139 106 346 193 539 229 97 18 284 18 382 1z"/>
<path d="M2375 3658 c-501 -94 -846 -430 -957 -933 -17 -80 -17 -373 0 -440
46 -175 55 -200 106 -303 61 -125 115 -201 210 -296 159 -161 336 -260 554
-311 86 -21 129 -25 257 -25 198 0 315 27 494 112 111 54 189 108 284 197 204
194 316 426 358 739 20 150 -13 373 -81 546 -25 65 -93 191 -132 244 -103 141
-298 304 -443 371 -74 35 -250 87 -333 100 -84 13 -245 12 -317 -1z m285 -369
l0 -70 56 -25 c74 -32 117 -66 157 -123 44 -60 65 -122 69 -196 l3 -60 -145 0
-145 0 -6 39 c-9 57 -46 86 -111 86 -43 0 -54 -4 -79 -31 -35 -38 -37 -71 -6
-121 28 -47 77 -85 205 -161 108 -65 204 -148 247 -217 73 -115 82 -288 23
-408 -47 -93 -94 -131 -248 -202 -11 -5 -16 -27 -18 -79 -2 -47 -7 -71 -15
-72 -82 -4 -211 1 -219 9 -6 6 -11 38 -12 73 -1 68 0 66 -79 96 -55 21 -139
98 -167 154 -44 85 -70 215 -47 238 16 16 261 15 274 -1 6 -7 13 -29 17 -49 4
-21 19 -48 37 -65 27 -26 37 -29 96 -28 61 0 68 3 94 32 37 41 40 103 7 152
-26 37 -106 100 -224 175 -94 59 -203 164 -234 224 -82 162 -60 341 57 452 26
26 64 54 83 64 91 46 85 39 86 102 1 32 2 64 3 71 1 9 32 12 121 12 l120 0 0
-71z"/>
</g>
</svg>
